# xmcd
#
# Track frame offsets:
#	150
#	17276
#	30127
#	68854
#	96016
#	141386
#	153309
#	170090
#
# Disc length: 2618 seconds
#
# Revision: 1
# Processed by: cddbd v1.5.1PL0 Copyright (c) Steve Scherf et al.
# Submitted via: audiograbber 1.83.01
#
DISCID=5a0a3808
DTITLE=Roy Buchanan - Ebbets Field, Denver, Co 13/9/74
DYEAR=1974
DGENRE=
TTITLE0=Too Many Drivers
TTITLE1=Reelin' And Rockin'
TTITLE2=My Soul Died Last Friday
TTITLE3=You Don't Love Me
TTITLE4=C.C. Rider
TTITLE5=I Hear You Knockin'
TTITLE6=Honky Tonk
TTITLE7=The Messiah Will Come Again
EXTD=
EXTT0=
EXTT1=
EXTT2=
EXTT3=
EXTT4=
EXTT5=
EXTT6=
EXTT7=
PLAYORDER=
